<svg xmlns="http://www.w3.org/2000/svg" viewBox="0 0 30 30"><defs><style>.f6d51f45-6247-4e94-94ae-a34e53c72976{fill:#fff;}</style></defs><g id="bae6153a-6235-44e9-b995-f8f83c9ccaac" data-name="Layer 2"><g id="ab299c21-1677-4589-bbf3-0e7348478ac2" data-name="Layer 1"><g id="fe8e482d-ff6c-4eaf-8f29-9421a3967034" data-name="Chevron"><g id="a87ff340-04ab-47c3-b0a8-cc040ab5c58f" data-name="Chevron"><polygon class="f6d51f45-6247-4e94-94ae-a34e53c72976" points="12.63 5.74 10.62 7.51 18.29 14.98 10.68 22.5 12.7 24.26 22.11 14.96 12.63 5.74"/></g></g><path class="f6d51f45-6247-4e94-94ae-a34e53c72976" d="M15,30a15,15,0,0,1-.06-30H15A15,15,0,0,1,30,14.94h0A15,15,0,0,1,15.06,30ZM15,2.73H15A12.27,12.27,0,0,0,15,27.27h.05A12.28,12.28,0,0,0,27.27,15h0A12.28,12.28,0,0,0,15,2.73Z"/></g></g></svg>