<svg xmlns="http://www.w3.org/2000/svg" viewBox="0 0 30 30"><defs><style>.fe675944-ea38-4144-84b8-8f2beae1b60d{fill:#0078d4;}</style></defs><g id="af3bbc44-ef5c-4ff7-b998-64c3b0200a24" data-name="Layer 2"><g id="bca6dd2f-9c68-4c52-bb2a-f0434bbd7486" data-name="Layer 1"><g id="aa7ba36a-eb5c-41d8-a29e-677346ade5ce" data-name="Chevron"><g id="acebdfc4-5dc2-4a08-94e9-763216dceff7" data-name="Chevron"><polygon class="fe675944-ea38-4144-84b8-8f2beae1b60d" points="12.63 5.74 10.62 7.51 18.29 14.98 10.68 22.5 12.7 24.26 22.11 14.96 12.63 5.74"/></g></g><path class="fe675944-ea38-4144-84b8-8f2beae1b60d" d="M15,30a15,15,0,0,1-.06-30H15A15,15,0,0,1,30,14.94h0A15,15,0,0,1,15.06,30ZM15,2.73H15A12.27,12.27,0,0,0,15,27.27h.05A12.28,12.28,0,0,0,27.27,15h0A12.28,12.28,0,0,0,15,2.73Z"/></g></g></svg>