<svg xmlns="http://www.w3.org/2000/svg" viewBox="0 0 30 30"><defs><style>.fbaaef2c-02b5-4b92-a86e-5bfc64620e1e{fill:#2f2f2f;}</style></defs><g id="b04e165e-d587-450f-8b47-8ee5326e0276" data-name="Layer 2"><g id="a10cfdfb-88b3-42e1-9f06-478407de7c2d" data-name="Layer 1"><g id="aadb1792-fb77-4f46-8139-1a7595c80c49" data-name="Chevron"><g id="e6f60ebb-52f8-4fac-bc14-a2cae524e1db" data-name="Chevron"><polygon class="fbaaef2c-02b5-4b92-a86e-5bfc64620e1e" points="12.63 5.74 10.62 7.51 18.29 14.98 10.68 22.5 12.7 24.26 22.11 14.96 12.63 5.74"/></g></g><path class="fbaaef2c-02b5-4b92-a86e-5bfc64620e1e" d="M15,30a15,15,0,0,1-.06-30H15A15,15,0,0,1,30,14.94h0A15,15,0,0,1,15.06,30ZM15,2.73H15A12.27,12.27,0,0,0,15,27.27h.05A12.28,12.28,0,0,0,27.27,15h0A12.28,12.28,0,0,0,15,2.73Z"/></g></g></svg>