<?xml version="1.0" encoding="utf-8"?>
<!-- Generator: Adobe Illustrator 25.0.0, SVG Export Plug-In . SVG Version: 6.00 Build 0)  -->
<svg version="1.1" id="Layer_1" xmlns="http://www.w3.org/2000/svg" xmlns:xlink="http://www.w3.org/1999/xlink" x="0px" y="0px"
	 viewBox="0 0 30 30" style="enable-background:new 0 0 30 30;" xml:space="preserve">
<style type="text/css">
	.st0{fill:#050E3F;}
</style>
<g id="b04e165e-d587-450f-8b47-8ee5326e0276">
	<g id="a10cfdfb-88b3-42e1-9f06-478407de7c2d">
		<g id="aadb1792-fb77-4f46-8139-1a7595c80c49">
			<g id="e6f60ebb-52f8-4fac-bc14-a2cae524e1db">
				<polygon class="st0" points="12.6,5.7 10.6,7.5 18.3,15 10.7,22.5 12.7,24.3 22.1,15 				"/>
			</g>
		</g>
		<path class="st0" d="M15,30C6.7,30,0,23.3,0,15s6.7-15,15-15H15c8.3,0,15,6.7,15,14.9l0,0C30,23.2,23.3,30,15,30
			C15.1,30,15.1,30,15,30L15,30z M15,2.7L15,2.7C8.2,2.7,2.7,8.2,2.7,15c0,6.8,5.5,12.3,12.3,12.3h0.1c6.8,0,12.2-5.5,12.2-12.3l0,0
			C27.3,8.2,21.8,2.7,15,2.7z"/>
	</g>
</g>
</svg>
